{
  "title": "Black Or White 2015 720p HDCAM FIRST x264 Pimp4003",
  "uid": 11688371,
  "size": 2236018794,
  "categoryP": "video",
  "categoryS": "movies",
  "magnet": "?xt=urn:btih:03adea81c367efeb2779ec0297946cb543e5ba10&amp;dn=Black+Or+White+2015+720p+HDCAM+FIRST+x264+Pimp4003&amp;tr=udp%3A%2F%2Ftracker.openbittorrent.com%3A80&amp;tr=udp%3A%2F%2Fopen.demonii.com%3A1337&amp;tr=udp%3A%2F%2Ftracker.coppersurfer.tk%3A6969&amp;tr=udp%3A%2F%2Fexodus.desync.com%3A6969",
  "seeders": 46,
  "leechers": 2,
  "uploader": "shawnmurthy",
  "files": 1,
  "time": 1423407570,
  "description": "SOURCE IS SPECTRE....VERY GOOD FOR THE FIRST HDCAM....VIDEO HAD SOME FLICKERING FIXED THAT AND ALSO ADJUST CONTRAST...ALSO DID WORK ON THE BRIGHTNESS IN THE DARK SCENES...AUDIO WAS A LITTLE HOLLOW FIXED THAT HAS WELL....ENJOY...PIMP4003\n\nSCREENSHOTS GO HERE...pimp4003 dot net/torrents.php?id=a91b7f44b09e85728ae4181e5166cba187a9de8d\n &lt;a href=&quot;\nhttp://i.imgur.com/J3ny9bJ.jpg&quot; rel=&quot;nofollow&quot; target=&quot;_NEW&quot;&gt;\nhttp://i.imgur.com/J3ny9bJ.jpg&lt;/a&gt;\n &lt;a href=&quot;\nhttp://i.imgur.com/SpsuXOR.png&quot; rel=&quot;nofollow&quot; target=&quot;_NEW&quot;&gt;\nhttp://i.imgur.com/SpsuXOR.png&lt;/a&gt;\n\nPIMP THE ONE AND ONLY PIMPSTER.....PRESENTS\n\nfacebook dot com/OfficialPimp4003\n &lt;a href=&quot;\nhttp://i.imgur.com/djMtyJb.jpg&quot; rel=&quot;nofollow&quot; target=&quot;_NEW&quot;&gt;\nhttp://i.imgur.com/djMtyJb.jpg&lt;/a&gt;\n\nBlack Or White 2015 720p HDCAM FIRST x264 Pimp4003\n &lt;a href=&quot;\nhttp://www.imdb.com/title/tt2883434/&quot; rel=&quot;nofollow&quot; target=&quot;_NEW&quot;&gt;\nhttp://www.imdb.com/title/tt2883434/&lt;/a&gt;\n\nA grieving widower is drawn into a custody battle over his granddaughter, whom he helped raise her entire life.\n\nDirector: Mike Binder\nWriter: Mike Binder\nStars: Kevin Costner, Octavia Spencer, Gillian Jacobs | See full cast and crew Â»\n\nVideo\nID                                       : 1\nFormat                                   : MPEG-4 Visual\nFormat profile                           : Simple@L3\nFormat settings, BVOP                    : No\nFormat settings, QPel                    : No\nFormat settings, GMC                     : No warppoints\nFormat settings, Matrix                  : Default (H.263)\nCodec ID                                 : 20\nDuration                                 : 1h 57mn\nBit rate                                 : 2 398 Kbps\nWidth                                    : 1 280 pixels\nHeight                                   : 536 pixels\nDisplay aspect ratio                     : 2.40:1\nFrame rate mode                          : Variable\nFrame rate                               : 59.940 fps\nMinimum frame rate                       : 59.916 fps\nMaximum frame rate                       : 60.157 fps\nColor space                              : YUV\nChroma subsampling                       : 4:2:0\nBit depth                                : 8 bits\nScan type                                : Progressive\nCompression mode                         : Lossy\nBits/(Pixel*Frame)                       : 0.058\nStream size                              : 1.97 GiB (95%)\nWriting library                          : ZJMedia MPEG Encoder\n\nAudio\nID                                       : 2\nFormat                                   : AAC\nFormat/Info                              : Advanced Audio Codec\nFormat profile                           : LC\nCodec ID                                 : 40\nDuration                                 : 1h 57mn\nBit rate mode                            : Variable\nBit rate                                 : 128 Kbps\nChannel(s)                               : 2 channels\nChannel positions                        : Front: L R\nSampling rate                            : 48.0 KHz\nCompression mode                         : Lossy\nStream size                              : 108 MiB (5%)",
  "parsed": {
    "xt": "urn:btih:03adea81c367efeb2779ec0297946cb543e5ba10",
    "dn": "Black Or White 2015 720p HDCAM FIRST x264 Pimp4003",
    "tr": [
      "udp://exodus.desync.com:6969",
      "udp://open.demonii.com:1337",
      "udp://tracker.coppersurfer.tk:6969",
      "udp://tracker.openbittorrent.com:80"
    ],
    "infoHash": "03adea81c367efeb2779ec0297946cb543e5ba10",
    "infoHashBuffer": {
      "type": "Buffer",
      "data": [
        3,
        173,
        234,
        129,
        195,
        103,
        239,
        235,
        39,
        121,
        236,
        2,
        151,
        148,
        108,
        181,
        67,
        229,
        186,
        16
      ]
    },
    "name": "Black Or White 2015 720p HDCAM FIRST x264 Pimp4003",
    "announce": [
      "udp://exodus.desync.com:6969",
      "udp://open.demonii.com:1337",
      "udp://tracker.coppersurfer.tk:6969",
      "udp://tracker.openbittorrent.com:80"
    ],
    "urlList": []
  },
  "previous": 48,
  "peers": 1,
  "last_updated": "2016-12-24T15:43:32.905Z"
}